<?xml version="1.0" encoding="UTF-8" standalone="no"?>
<svg
   id="svg14789"
   viewBox="0 0 95 95"
   version="1.1"
   sodipodi:docname="bee.svg"
   xmlns:inkscape="http://www.inkscape.org/namespaces/inkscape"
   xmlns:sodipodi="http://sodipodi.sourceforge.net/DTD/sodipodi-0.dtd"
   xmlns:xlink="http://www.w3.org/1999/xlink"
   xmlns="http://www.w3.org/2000/svg"
   xmlns:svg="http://www.w3.org/2000/svg"
   xmlns:rdf="http://www.w3.org/1999/02/22-rdf-syntax-ns#"
   xmlns:cc="http://creativecommons.org/ns#"
   xmlns:dc="http://purl.org/dc/elements/1.1/">
  <sodipodi:namedview
     id="namedview27"
     pagecolor="#ffffff"
     bordercolor="#666666"
     borderopacity="1.0"
     inkscape:pageshadow="2"
     inkscape:pageopacity="0.0"
     inkscape:pagecheckerboard="0"
     showgrid="true">
    <inkscape:grid
       type="xygrid"
       id="grid854" />
  </sodipodi:namedview>
  <title
     id="title3076">Liitle Bee</title>
  <defs
     id="defs14793">
    <linearGradient
       id="linearGradient3068"
       x1="45.1"
       gradientUnits="userSpaceOnUse"
       x2="84.952"
       y1="61.154"
       y2="61.154">
      <stop
         id="stop15924-76"
         stop-color="#fff"
         offset="0" />
      <stop
         id="stop15926-1"
         stop-color="#a2ffff"
         offset="1" />
    </linearGradient>
    <linearGradient
       id="linearGradient3172"
       x1="45.1"
       gradientUnits="userSpaceOnUse"
       y1="61.154"
       gradientTransform="matrix(-1 0 0 1 94.032 -1.3066)"
       x2="84.952"
       y2="61.154">
      <stop
         id="stop15924-2"
         stop-color="#fff"
         offset="0" />
      <stop
         id="stop15926-2"
         stop-color="#a2ffff"
         offset="1" />
    </linearGradient>
    <linearGradient
       inkscape:collect="always"
       xlink:href="#linearGradient3172"
       id="linearGradient844"
       gradientUnits="userSpaceOnUse"
       gradientTransform="matrix(-1,0,0,1,94.032,-1.3066)"
       x1="45.099998"
       y1="61.153999"
       x2="84.952003"
       y2="61.153999" />
    <linearGradient
       inkscape:collect="always"
       xlink:href="#linearGradient3068"
       id="linearGradient852"
       gradientUnits="userSpaceOnUse"
       x1="45.099998"
       y1="61.153999"
       x2="84.952003"
       y2="61.153999" />
    <linearGradient
       inkscape:collect="always"
       xlink:href="#linearGradient3172"
       id="linearGradient2572"
       gradientUnits="userSpaceOnUse"
       gradientTransform="matrix(-1,0,0,1,94.032,-1.3066)"
       x1="45.099998"
       y1="61.153999"
       x2="84.952003"
       y2="61.153999" />
    <linearGradient
       inkscape:collect="always"
       xlink:href="#linearGradient3068"
       id="linearGradient2574"
       gradientUnits="userSpaceOnUse"
       x1="45.099998"
       y1="61.153999"
       x2="84.952003"
       y2="61.153999" />
    <linearGradient
       inkscape:collect="always"
       xlink:href="#linearGradient3068"
       id="linearGradient2576"
       gradientUnits="userSpaceOnUse"
       x1="45.099998"
       y1="61.153999"
       x2="84.952003"
       y2="61.153999" />
  </defs>
  <metadata
     id="metadata24">
    <rdf:RDF>
      <cc:Work
         rdf:about="">
        <dc:title>Liitle Bee</dc:title>
      </cc:Work>
    </rdf:RDF>
  </metadata>
  <g
     id="layer1"
     transform="matrix(0.70041279,0.57934169,-0.57507395,0.70561069,80.763562,-34.044585)">
    <g
       id="g3950">
      <rect
         id="rect15995"
         style="color:#000000;fill:#27ffff;fill-opacity:0.878995"
         height="86.646004"
         width="86.646004"
         y="4.1768999"
         x="4.1768999"
         fill="#ffffff"
         ry="38.367374"
         rx="0" />
      <path
         id="path15590"
         stroke-width="1.8"
         stroke="#000000"
         transform="matrix(-1.2212,0,0,1.2212,119.97,-17.864)"
         d="m 75.2,43.2 a 10.4,10.4 0 1 1 -20.8,0 10.4,10.4 0 1 1 20.8,0 z" />
      <path
         id="path15590-7"
         stroke="#000000"
         stroke-width="1.8"
         fill="#ffff00"
         d="M 39.599,58.252 C 42.25,71.155 54.453,82.831 66.854,84.33 79.255,85.83 87.159,76.586 84.508,63.682 81.856,50.779 69.654,39.104 57.252,37.604 44.851,36.105 36.948,45.349 39.599,58.252 Z" />
      <path
         id="path14800"
         stroke="#000000"
         stroke-width="1.8"
         fill="url(#linearGradient3172)"
         d="m 48.032,44.493 c -18.6,1.6 -46.132,11.217 -35.8,26 10.332,14.783 31,-8.4 35.8,-26 z"
         style="fill:url(#linearGradient2572)" />
      <path
         id="path15630"
         style="color:#000000;text-indent:0;text-transform:none"
         d="m 70.188,42.818 c 2.1876,1.5259 4.2297,3.3109 6.0625,5.3125 -1.6387,0.12654 -3.55,0.29768 -5.7188,0.59375 -5.408,0.73828 -11.766,2.2611 -14.781,4.3125 l -0.125,0.09375 c -2.9597,2.0849 -6.8656,7.6626 -9.7188,12.688 -0.64133,1.1295 -1.2095,2.1918 -1.75,3.2188 -1.4291,-2.1934 -2.6088,-4.5238 -3.4688,-6.9375 2.0446,-6.0895 4.5469,-12.949 9.0312,-16 4.5252,-3.0791 12.419,-3.3262 19.062,-3.2812 0.8146,0.0055 0.65187,-0.0039 1.4062,0 z m 10.281,10.906 c 1.1219,1.8295 2.0776,3.7435 2.8125,5.7188 -1.1796,0.11523 -2.4434,0.25486 -3.7812,0.4375 -5.6618,0.77294 -12.312,2.3523 -15.469,4.5 l -0.15625,0.09375 c -3.0986,2.1827 -7.1692,8.0205 -10.156,13.281 -0.17312,0.3049 -0.3019,0.57493 -0.46875,0.875 -1.8169,-1.3304 -3.5306,-2.8346 -5.0938,-4.5 2.1553,-6.434 4.809013,-13.765834 9.5625,-17 4.737713,-3.223434 12.982,-3.4533 19.938,-3.4062 1.6259,0.01099 1.4328,-0.0051 2.8125,0 z m 4.2812,11.344 c 0.25363,1.6902 0.32088,3.3108 0.21875,4.8438 -4.3964,0.61259 -9.4961,1.8388 -11.938,3.5 l -0.09375,0.09375 c -2.425,1.7082 -5.6311,6.2579 -7.9688,10.375 -0.02442,0.043 -0.03824,0.08211 -0.0625,0.125 -1.6152,-0.33228 -3.2105,-0.82464 -4.7812,-1.4688 0.16236,-0.46518 0.30468,-0.8847 0.46875,-1.375 1.6925,-5.0575 3.7568,-10.859 7.5,-13.406 3.7077,-2.5228 10.182,-2.7243 15.625,-2.6875 0.59678,0.004 0.47333,-0.0031 1.0312,0 z"
         sodipodi:nodetypes="cccccccccccccccccsccscccccccsccccccc" />
      <path
         id="path14800-1"
         style="color:#000000;fill:url(#linearGradient844)"
         d="M 48.729,45.412 C 36.883,54.598 22.507,73.084 35.918,78.55 49.329,84.016 53.163,59.374 48.729,45.412 Z"
         stroke="#000000"
         stroke-width="1.8"
         fill="url(#linearGradient3172)" />
      <path
         id="path15841"
         stroke="#000000"
         stroke-width="1px"
         d="m 29.332,30.093 c -9.875,-0.2 -11.102,-1.0525 -13.15,1.675 -2.0477,2.7275 -3.1495,7.2871 -0.6,7.3 2.5495,0.01295 2.405,-4.5076 3.1434,-6.3622 0.73841,-1.8546 5.5066,-2.3003 10.607,-2.6128 z" />
      <path
         id="path15841-2"
         stroke="#000000"
         stroke-width="1px"
         d="m 39.894,23.452 c -3.35e-4,-9.877 -0.82783,-11.121 1.9405,-13.113 2.7683,-1.9921 7.3492,-3.0016 7.3106,-0.45231 -0.03859,2.5493 -4.5553,2.3134 -6.4244,3.0142 -1.8691,0.70077 -2.4112,5.459 -2.8267,10.552 z" />
      <g
         id="g15882"
         style="color:#000000;fill:url(#linearGradient852)"
         transform="rotate(-90,46.148,27.801)"
         stroke="#000000"
         stroke-width="1.8"
         fill="url(#linearGradient3068)">
        <path
           id="path14800-4"
           style="color:#000000;fill:url(#linearGradient2574)"
           d="m 29.702,30.083 c 18.6,1.6 46.132,11.217 35.8,26 -10.332,14.783 -31,-8.4 -35.8,-26 z" />
        <path
           id="path14800-1-5"
           style="color:#000000;fill:url(#linearGradient2576)"
           d="M 29.005,31.002 C 40.851,40.188 55.227,58.673 41.816,64.139 28.405,69.605 24.571,44.963 29.005,31.002 Z" />
      </g>
      <path
         id="path15886"
         stroke-width="0"
         d="m 80.119,80.245 5.328,9.4599 -8.1551,-7.394 z" />
    </g>
  </g>
</svg>
